<svg fill="#000000" xmlns="http://www.w3.org/2000/svg"  viewBox="0 0 50 50" width="20px" height="20px"><path d="M 12 4 C 9.9375 4 8.171875 5.605469 8 7.65625 L 6 29.65625 C 5.90625 30.765625 6.308594 31.898438 7.0625 32.71875 C 7.820313 33.539063 8.886719 34 10 34 L 40 34 C 41.113281 34 42.183594 33.539063 42.9375 32.71875 C 43.695313 31.898438 44.09375 30.777344 44 29.65625 L 42 7.65625 C 41.828125 5.597656 40.0625 4 38 4 Z M 5.84375 9.40625 C 4.585938 10.007813 3.699219 11.234375 3.5625 12.71875 L 1.03125 40.3125 C 0.921875 41.511719 1.3125 42.703125 2.125 43.59375 C 2.9375 44.484375 4.078125 45 5.28125 45 L 44.71875 45 C 45.921875 45 47.0625 44.484375 47.875 43.59375 C 48.6875 42.703125 49.078125 41.511719 48.96875 40.3125 L 46.4375 12.71875 C 46.300781 11.234375 45.414063 10.007813 44.15625 9.40625 L 46 29.03125 L 46 36 C 46 39.308594 43.308594 42 40 42 L 10 42 C 6.691406 42 4 39.308594 4 36 L 4 31.03125 L 4.03125 29.03125 Z M 24.90625 10 C 26.890625 10 30.65625 10.492188 30.65625 12.25 C 30.65625 13.34375 29.621094 13.65625 28.8125 13.65625 C 27.375 13.65625 26.332031 12.78125 24.9375 12.78125 C 23.542969 12.78125 22.875 13.410156 22.875 14.28125 C 22.875 16.527344 32.28125 15.214844 32.28125 21.03125 C 32.28125 25.851563 26.851563 26.59375 25.53125 26.59375 C 23.320313 26.59375 17.28125 26.246094 17.28125 23.75 C 17.28125 22.164063 18.78125 21.875 19.6875 21.875 C 20.832031 21.875 22.460938 23.03125 24.53125 23.03125 C 26 23.03125 27.53125 22.289063 27.53125 21.1875 C 27.53125 18.253906 18.3125 19.398438 18.3125 14.8125 C 18.3125 11.054688 22.261719 10 24.90625 10 Z M 6 34.46875 L 6 36 C 6 38.207031 7.792969 40 10 40 L 40 40 C 42.207031 40 44 38.207031 44 36 L 44 34.46875 C 42.90625 35.449219 41.480469 36 40 36 L 10 36 C 8.523438 36 7.09375 35.445313 6 34.46875 Z"/></svg>